# xmcd CD database file
#
# Track frame offsets:
#	150
#	13512
#	29417
#	45402
#	59812
#	80580
#	98915
#	117927
#	137975
#	153595
#
# Disc length: 2607 seconds
#
# Revision: 0
# Processed by: cddbd v1.5.1PL0 Copyright (c) Steve Scherf et al.
# Submitted via: CDex 1.51
#
DISCID=850a2d0a
DTITLE=嘉手苅林昌 - 独演！嘉手苅林昌? 情歌の世界
DYEAR=1900
DGENRE=Other
TTITLE0=仲島節
TTITLE1=ひんすう尾類小
TTITLE2=伊佐ヘイヨー
TTITLE3=いちゅび小
TTITLE4=意見あやぐ
TTITLE5=新里前とよ
TTITLE6=かいされー
TTITLE7=ナークニー〜山原汀間当
TTITLE8=白雲節
TTITLE9=かながなーと（楽しき朝）
EXTD=
EXTT0=
EXTT1=
EXTT2=
EXTT3=
EXTT4=
EXTT5=
EXTT6=
EXTT7=
EXTT8=
EXTT9=
PLAYORDER=
